<svg xmlns="http://www.w3.org/2000/svg" width="109" height="80" fill="none" viewBox="0 0 109 80"><g fill="#fff"><path d="M0 3.463C.861.888 2.682-.113 5.348.01c2.28.107 4.577.016 6.865.025 1.346 0 2.043.574 2.035 1.6-.017 1-.755 1.574-2.076 1.582-2.46.008-4.93 0-7.39 0-1.296 0-1.6.32-1.6 1.64v59.657h7.243c1.674 0 2.477.541 2.436 1.64-.032 1.058-.795 1.534-2.427 1.534H3.568c-.066 0-.14.025-.385.058v7.62c0 1.419 0 1.419 1.386 1.419h37.255c-.016-2.453-.877-4.462-2.46-6.16-1.846-1.985-4.167-2.945-6.874-2.953-4.577-.008-9.154 0-13.731 0-.32 0-.64.033-.952-.033-.82-.172-1.312-.673-1.328-1.534s.475-1.378 1.28-1.575c.303-.074.63-.04.942-.04 4.364 0 8.728.048 13.092-.017 3.74-.058 6.98 1.074 9.654 3.724.065.065.164.098.344.205.025-.37.05-.673.05-.968V12.839c0-4.905-2.994-8.63-7.62-9.49-.722-.132-1.469-.132-2.207-.14-3.945-.016-7.883 0-11.828-.008-.385 0-.787 0-1.148-.099-.82-.23-1.214-.82-1.132-1.665.082-.804.55-1.296 1.353-1.37.665-.065 1.337-.04 2.002-.04 3.765 0 7.53-.017 11.303.008 4.495.032 7.964 2.001 10.49 5.684.115.164.23.328.353.492.73-.878 1.362-1.772 2.116-2.534 2.28-2.28 5.053-3.585 8.293-3.601C63.388.026 72.97.035 82.541.059c2.567 0 4.282 1.756 4.33 4.331.05 2.707.042 5.422 0 8.129-.016.795.198 1.246.944 1.64 3.79 2.002 6.775 4.88 9.04 8.514.565.91.385 1.805-.395 2.313-.77.5-1.64.271-2.272-.598-.123-.173-.23-.353-.352-.525-3.035-4.503-7.161-7.48-12.443-8.818-11.46-2.904-23.287 4.438-25.625 15.913-2.444 11.959 5.365 23.32 17.283 25.157 12.918 1.984 24.623-8.178 24.238-21.089-.041-1.329-.304-2.65-.468-3.978-.024-.205-.082-.41-.114-.623-.156-1.108.278-1.854 1.172-2.026.935-.18 1.657.303 1.912 1.361a24 24 0 0 1 .41 9.113c-.492 3.42-1.69 6.587-3.576 9.597.27.287.524.566.795.828 3.207 3.216 6.423 6.423 9.63 9.638 1.411 1.411 1.452 2.896.098 4.356a46 46 0 0 1-2.461 2.46c-1.394 1.296-2.952 1.264-4.289-.065-3.24-3.232-6.489-6.456-9.696-9.72-.508-.517-.82-.468-1.492-.205-2.035.795-2.445 2.165-2.38 4.232.173 5.209.058 10.417.058 15.626 0 2.961-1.37 4.355-4.298 4.355-26.083 0-52.167-.008-78.25.025-2.158 0-3.512-.919-4.332-2.822V3.463zm83.665 55.071C72.5 61.16 63.109 58.526 56.482 49.07c-5.767-8.227-6.144-17.266-.96-25.854 6.415-10.614 16.224-13.723 28.192-11v-7.16c0-1.641-.197-1.846-1.805-1.846H54.776c-.698 0-1.42.008-2.1.14-4.643.877-7.637 4.642-7.637 9.604v55.523c.263-.19.386-.246.476-.337 2.666-2.592 5.873-3.69 9.572-3.666 9.113.049 18.234.016 27.347.016h1.247v-5.971zM45.138 76.793h36.271c2.6 0 2.288.36 2.297-2.289.016-2.239 0-4.478 0-6.775-.37-.016-.607-.04-.845-.04H54.366c-.665 0-1.337.081-1.985.212-4.15.829-7.432 4.799-7.243 8.892M92.63 53.17l9.99 9.99q.962-.996 2.059-2.14c-1.632-1.625-3.305-3.281-4.97-4.955-1.657-1.657-3.298-3.322-4.799-4.83a708 708 0 0 1-2.288 1.927z"/><path d="M93.835 35.395c-.008 9.728-7.866 17.545-17.61 17.52-9.663-.024-17.504-7.898-17.496-17.56 0-9.688 7.924-17.554 17.635-17.53 9.654.025 17.48 7.883 17.471 17.57m-3.174.008c.016-7.94-6.382-14.378-14.305-14.403-7.907-.025-14.403 6.414-14.444 14.305-.041 7.956 6.438 14.453 14.395 14.444a14.34 14.34 0 0 0 14.362-14.346zM26.355 48.404c-3.142.681-5.102-.746-6.201-3.568-.673-1.739-1.813-2.477-3.691-2.149-3.027.533-4.856-.795-6.267-3.527-2.01-3.896-2.01-3.666.025-7.579 1.37-2.633 3.108-3.978 6.078-3.461 1.927.336 3.19-.328 3.871-2.207 1.017-2.813 3.027-3.707 6.012-3.568 4.57.222 4.208-.049 6.71 3.896 1.542 2.436 1.846 4.586-.04 6.808-1.379 1.633-1.289 3.126.032 4.725 1.788 2.165 1.804 4.372.05 6.611-.477.599-.821 1.313-1.166 2.002-.738 1.443-1.91 2.083-3.518 2.017-.632-.024-1.264 0-1.903 0zm.057-14.707c1.895.648 2.682-.459 3.593-1.894.976-1.543.943-2.674.008-4.233-.902-1.51-1.813-2.067-3.6-2.059-1.805 0-2.781.517-3.675 2.117-.87 1.542-.91 2.624.016 4.142.919 1.493 1.73 2.625 3.65 1.936zm-9.515-2.403c-2.764 0-2.657.066-4.019 2.092-.968 1.443-.894 2.526-.033 4.027.91 1.591 1.87 2.215 3.74 2.182 1.731-.033 2.642-.541 3.52-2.026.935-1.583 1.008-2.748 0-4.331-.895-1.419-1.682-2.453-3.216-1.944zm9.163 13.92c2.723 0 2.6-.082 3.953-2.06 1.017-1.484.902-2.591.041-4.133-.894-1.583-1.862-2.117-3.675-2.117-1.78 0-2.698.55-3.592 2.06-.927 1.566-.976 2.69.008 4.232.91 1.427 1.698 2.543 3.264 2.01z"/></g></svg>